<svg width="261" height="86" viewBox="0 0 261 86" fill="none" xmlns="http://www.w3.org/2000/svg">
<rect x="100.271" width="15.0668" height="50.2051" rx="7.5334" transform="rotate(40 100.271 0)" fill="#CAF352"/>
<rect x="103.75" y="30.585" width="15.0668" height="50.2051" rx="7.5334" transform="rotate(40 103.75 30.585)" fill="#D9D9D9"/>
<path d="M3.84 68V20H15.616C20.608 20 24.512 21.0453 27.328 23.136C30.144 25.2267 31.552 28.3627 31.552 32.544C31.552 38.0053 29.5253 41.6747 25.472 43.552C27.904 44.448 29.696 45.8347 30.848 47.712C32.0427 49.5467 32.64 51.9787 32.64 55.008C32.64 59.1467 31.2107 62.3467 28.352 64.608C25.4933 66.8693 21.2907 68 15.744 68H3.84ZM13.248 40.224H16.32C18.24 40.224 19.7547 39.6267 20.864 38.432C22.016 37.1947 22.592 35.552 22.592 33.504C22.592 29.4507 20.2667 27.424 15.616 27.424H13.248V40.224ZM13.248 60.576H15.744C20.8213 60.576 23.36 58.3147 23.36 53.792C23.36 51.5733 22.7413 49.952 21.504 48.928C20.3093 47.904 18.3893 47.392 15.744 47.392H13.248V60.576Z" fill="#CAF352"/>
<path d="M45.011 68V52.128L34.387 20.704L43.731 19.296L49.811 39.904L50.259 41.76L50.643 39.904L56.851 20H65.043L54.419 50.976V68H45.011Z" fill="white"/>
<path d="M135.276 68.896C131.607 68.896 128.599 67.872 126.252 65.824C123.948 63.776 122.263 60.896 121.196 57.184C120.129 53.4293 119.596 49.0347 119.596 44C119.596 38.9227 120.129 34.528 121.196 30.816C122.263 27.104 123.948 24.224 126.252 22.176C128.599 20.128 131.607 19.104 135.276 19.104C138.988 19.104 141.996 20.128 144.3 22.176C146.604 24.224 148.289 27.104 149.356 30.816C150.423 34.528 150.956 38.9227 150.956 44C150.956 49.0347 150.423 53.4293 149.356 57.184C148.289 60.896 146.604 63.776 144.3 65.824C141.996 67.872 138.988 68.896 135.276 68.896ZM135.276 60.704C136.599 60.704 137.644 60.256 138.412 59.36C139.223 58.464 139.82 57.2267 140.204 55.648C140.588 54.0693 140.823 52.2773 140.908 50.272C141.036 48.2667 141.1 46.176 141.1 44C141.1 41.824 141.036 39.7333 140.908 37.728C140.823 35.7227 140.588 33.9307 140.204 32.352C139.82 30.7733 139.223 29.536 138.412 28.64C137.644 27.744 136.599 27.296 135.276 27.296C133.953 27.296 132.908 27.744 132.14 28.64C131.372 29.536 130.796 30.7733 130.412 32.352C130.028 33.9307 129.772 35.7227 129.644 37.728C129.516 39.7333 129.452 41.824 129.452 44C129.452 46.176 129.516 48.2667 129.644 50.272C129.772 52.2773 130.028 54.0693 130.412 55.648C130.796 57.2267 131.372 58.464 132.14 59.36C132.908 60.256 133.953 60.704 135.276 60.704ZM157.069 68V20H168.845C173.837 20 177.741 21.0453 180.557 23.136C183.373 25.2267 184.781 28.3627 184.781 32.544C184.781 38.0053 182.755 41.6747 178.701 43.552C181.133 44.448 182.925 45.8347 184.077 47.712C185.272 49.5467 185.869 51.9787 185.869 55.008C185.869 59.1467 184.44 62.3467 181.581 64.608C178.723 66.8693 174.52 68 168.973 68H157.069ZM166.477 40.224H169.549C171.469 40.224 172.984 39.6267 174.093 38.432C175.245 37.1947 175.821 35.552 175.821 33.504C175.821 29.4507 173.496 27.424 168.845 27.424H166.477V40.224ZM166.477 60.576H168.973C174.051 60.576 176.589 58.3147 176.589 53.792C176.589 51.5733 175.971 49.952 174.733 48.928C173.539 47.904 171.619 47.392 168.973 47.392H166.477V60.576ZM211.731 68.896L209.683 59.232H199.379L197.907 68H188.627L198.419 20.576L210.003 19.232L221.139 68L211.731 68.896ZM204.179 29.408L203.667 32.544L200.147 51.424H208.467L204.755 32.48L204.179 29.408ZM247.704 68.576L234.712 38.432L234.776 38.88V68H225.944V20.384L234.456 19.36L246.808 48.736L246.744 47.968V20H255.576V67.552L247.704 68.576Z" fill="white"/>
</svg>
